<?xml version="1.0" encoding="UTF-8"?>
<svg width="700pt" height="700pt" version="1.1" viewBox="0 0 700 700" xmlns="http://www.w3.org/2000/svg">
 <path d="m560 116.67h-420c-6.1875 0-12.125 2.457-16.5 6.832s-6.832 10.312-6.832 16.5v280c0 6.1875 2.457 12.125 6.832 16.5s10.312 6.832 16.5 6.832h420c6.1875 0 12.125-2.457 16.5-6.832s6.832-10.312 6.832-16.5v-280c0-6.1875-2.457-12.125-6.832-16.5s-10.312-6.832-16.5-6.832zm-77 46.664-133 88.668-133-88.668zm-319.67 233.34v-213.04l173.83 116.67h0.003907c3.8086 2.5078 8.2695 3.8438 12.832 3.8438s9.0234-1.3359 12.832-3.8438l173.83-116.67 0.003907 213.04z"/>
</svg>
