<?xml version="1.0" encoding="UTF-8"?>
<svg width="700pt" height="700pt" version="1.1" viewBox="0 0 700 700" xmlns="http://www.w3.org/2000/svg">
 <path d="m454.52 354.85c30.883-37.488 49.43-85.516 49.43-137.88 0-119.83-97.141-216.98-216.97-216.98-119.83 0-216.98 97.145-216.98 216.98 0 119.83 97.145 216.97 216.98 216.97 52.367 0 100.4-18.555 137.89-49.445l175.48 175.48 29.652-29.656zm7.4961-137.88c0 96.672-78.367 175.04-175.04 175.04-96.672 0-175.04-78.367-175.04-175.04 0-96.672 78.367-175.04 175.04-175.04 96.672 0 175.04 78.367 175.04 175.04z" fill-rule="evenodd"/>
</svg>
